# xmcd
#
# Track frame offsets:
#	187
#	16720
#	33170
#	49597
#	61460
#	74070
#
# Disc length: 1000 seconds
#
# Revision: 0
# Processed by: cddbd v1.5.1PL0 Copyright (c) Steve Scherf et al.
# Submitted via: dBpowerAMP V4.0
#
DISCID=4903e606
DTITLE=Robert Ellis Orrall - Every Day When I Get Home (Promo CD)
DYEAR=1993
DGENRE=Country
TTITLE0=Every Day When I Get Home
TTITLE1=Every Day When I Get Home
TTITLE2=Every Day When I Get Home
TTITLE3=Boom It Was Over
TTITLE4=A Little Bit Of Her Love
TTITLE5=Every Day When I Get Home
EXTD=
EXTT0=
EXTT1=
EXTT2=
EXTT3=
EXTT4=
EXTT5=
PLAYORDER=
